<svg width="164" height="137" viewBox="0 0 164 137" fill="none" xmlns="http://www.w3.org/2000/svg">
<g clip-path="url(#clip0)">
<path d="M86.283 92.669C87.7839 92.669 89.0005 91.4021 89.0005 89.8394C89.0005 88.2766 87.7839 87.0098 86.283 87.0098C84.7821 87.0098 83.5654 88.2766 83.5654 89.8394C83.5654 91.4021 84.7821 92.669 86.283 92.669Z" fill="white" fill-opacity="0.3"/>
<path d="M65.9011 87.0098C64.5424 87.0098 63.1836 88.4246 63.1836 89.8394C63.1836 91.2542 64.5424 92.669 65.9011 92.669C67.2599 92.669 68.6187 91.2542 68.6187 89.8394C68.6187 88.4246 67.2599 87.0098 65.9011 87.0098Z" fill="white" fill-opacity="0.3"/>
<path d="M44.8391 92.669C46.34 92.669 47.5567 91.4021 47.5567 89.8394C47.5567 88.2766 46.34 87.0098 44.8391 87.0098C43.3383 87.0098 42.1216 88.2766 42.1216 89.8394C42.1216 91.4021 43.3383 92.669 44.8391 92.669Z" fill="white" fill-opacity="0.3"/>
<path d="M23.7786 92.669C25.2795 92.669 26.4962 91.4021 26.4962 89.8394C26.4962 88.2766 25.2795 87.0098 23.7786 87.0098C22.2777 87.0098 21.061 88.2766 21.061 89.8394C21.061 91.4021 22.2777 92.669 23.7786 92.669Z" fill="white" fill-opacity="0.3"/>
<path d="M2.71756 92.669C4.07634 92.669 5.43511 91.2542 5.43511 89.8394C5.43511 88.4246 4.07634 87.0098 2.71756 87.0098C1.35878 87.0098 0 88.4246 0 89.8394C0 91.2542 1.35878 92.669 2.71756 92.669Z" fill="white" fill-opacity="0.3"/>
<path d="M86.283 71.4468C87.7839 71.4468 89.0005 70.18 89.0005 68.6172C89.0005 67.0545 87.7839 65.7876 86.283 65.7876C84.7821 65.7876 83.5654 67.0545 83.5654 68.6172C83.5654 70.18 84.7821 71.4468 86.283 71.4468Z" fill="white" fill-opacity="0.3"/>
<path d="M65.9011 65.7876C64.5424 65.7876 63.1836 67.2024 63.1836 68.6172C63.1836 70.032 64.5424 71.4468 65.9011 71.4468C67.2599 71.4468 68.6187 70.032 68.6187 68.6172C68.6187 66.495 67.2599 65.7876 65.9011 65.7876Z" fill="white" fill-opacity="0.3"/>
<path d="M44.8391 71.4468C46.34 71.4468 47.5567 70.18 47.5567 68.6172C47.5567 67.0545 46.34 65.7876 44.8391 65.7876C43.3383 65.7876 42.1216 67.0545 42.1216 68.6172C42.1216 70.18 43.3383 71.4468 44.8391 71.4468Z" fill="white" fill-opacity="0.3"/>
<path d="M23.7786 71.4468C25.2795 71.4468 26.4962 70.18 26.4962 68.6172C26.4962 67.0545 25.2795 65.7876 23.7786 65.7876C22.2777 65.7876 21.061 67.0545 21.061 68.6172C21.061 70.18 22.2777 71.4468 23.7786 71.4468Z" fill="white" fill-opacity="0.3"/>
<path d="M2.71756 71.4468C4.07634 71.4468 5.43511 70.032 5.43511 68.6172C5.43511 67.2024 4.07634 65.7876 2.71756 65.7876C1.35878 65.7876 0 66.495 0 68.6172C0 70.032 1.35878 71.4468 2.71756 71.4468Z" fill="white" fill-opacity="0.3"/>
<path d="M86.283 49.5196C87.6418 49.5196 89.0005 48.1048 89.0005 46.69C89.0005 45.2752 87.6418 43.8604 86.283 43.8604C84.9242 43.8604 83.5654 45.2752 83.5654 46.69C83.5654 48.1048 84.9242 49.5196 86.283 49.5196Z" fill="white" fill-opacity="0.3"/>
<path d="M65.9011 43.8604C64.5424 43.8604 63.1836 45.2752 63.1836 46.69C63.1836 48.1048 63.863 49.5196 65.9011 49.5196C67.2599 49.5196 68.6187 48.1048 68.6187 46.69C68.6187 44.5678 67.2599 43.8604 65.9011 43.8604Z" fill="white" fill-opacity="0.3"/>
<path d="M44.8391 43.8604C43.4804 43.8604 42.1216 45.2752 42.1216 46.69C42.1216 48.1048 42.801 49.5196 44.8391 49.5196C46.1979 49.5196 47.5567 48.1048 47.5567 46.69C47.5567 44.5678 46.1979 43.8604 44.8391 43.8604Z" fill="white" fill-opacity="0.3"/>
<path d="M23.7786 43.8604C22.4198 43.8604 21.061 45.2752 21.061 46.69C21.061 48.1048 22.4198 49.5196 23.7786 49.5196C25.1374 49.5196 26.4962 48.1048 26.4962 46.69C26.4962 44.5678 25.1374 43.8604 23.7786 43.8604Z" fill="white" fill-opacity="0.3"/>
<path d="M2.71756 49.5196C4.07634 49.5196 5.43511 48.1048 5.43511 46.69C5.43511 45.2752 4.07634 43.8604 2.71756 43.8604C1.35878 43.8604 0 44.5678 0 46.69C0 48.1048 1.35878 49.5196 2.71756 49.5196Z" fill="white" fill-opacity="0.3"/>
<path d="M86.283 27.5894C87.7839 27.5894 89.0005 26.3226 89.0005 24.7598C89.0005 23.197 87.7839 21.9302 86.283 21.9302C84.7821 21.9302 83.5654 23.197 83.5654 24.7598C83.5654 26.3226 84.7821 27.5894 86.283 27.5894Z" fill="white" fill-opacity="0.3"/>
<path d="M65.9011 21.9302C64.5424 21.9302 63.1836 23.345 63.1836 24.7598C63.1836 26.1746 64.5424 27.5894 65.9011 27.5894C67.2599 27.5894 68.6187 26.1746 68.6187 24.7598C68.6187 23.345 67.2599 21.9302 65.9011 21.9302Z" fill="white" fill-opacity="0.3"/>
<path d="M44.8391 27.5894C46.34 27.5894 47.5567 26.3226 47.5567 24.7598C47.5567 23.197 46.34 21.9302 44.8391 21.9302C43.3383 21.9302 42.1216 23.197 42.1216 24.7598C42.1216 26.3226 43.3383 27.5894 44.8391 27.5894Z" fill="white" fill-opacity="0.3"/>
<path d="M23.7786 27.5894C25.2795 27.5894 26.4962 26.3226 26.4962 24.7598C26.4962 23.197 25.2795 21.9302 23.7786 21.9302C22.2777 21.9302 21.061 23.197 21.061 24.7598C21.061 26.3226 22.2777 27.5894 23.7786 27.5894Z" fill="white" fill-opacity="0.3"/>
<path d="M2.71756 27.5894C4.07634 27.5894 5.43511 26.1746 5.43511 24.7598C5.43511 23.345 4.07634 21.9302 2.71756 21.9302C1.35878 21.9302 0 23.345 0 24.7598C0 26.1746 1.35878 27.5894 2.71756 27.5894Z" fill="white" fill-opacity="0.3"/>
<path d="M86.283 5.65924C87.7839 5.65924 89.0005 4.39238 89.0005 2.82962C89.0005 1.26686 87.7839 0 86.283 0C84.7821 0 83.5654 1.26686 83.5654 2.82962C83.5654 4.39238 84.7821 5.65924 86.283 5.65924Z" fill="white" fill-opacity="0.3"/>
<path d="M65.9011 0C63.863 0 63.1836 1.41481 63.1836 2.82962C63.1836 4.24443 64.5424 5.65924 65.9011 5.65924C67.2599 5.65924 68.6187 4.24443 68.6187 2.82962C68.6187 1.41481 67.2599 0 65.9011 0Z" fill="white" fill-opacity="0.3"/>
<path d="M44.8391 5.65924C46.34 5.65924 47.5567 4.39238 47.5567 2.82962C47.5567 1.26686 46.34 0 44.8391 0C43.3383 0 42.1216 1.26686 42.1216 2.82962C42.1216 4.39238 43.3383 5.65924 44.8391 5.65924Z" fill="white" fill-opacity="0.3"/>
<path d="M23.7786 5.65924C25.2795 5.65924 26.4962 4.39238 26.4962 2.82962C26.4962 1.26686 25.2795 0 23.7786 0C22.2777 0 21.061 1.26686 21.061 2.82962C21.061 4.39238 22.2777 5.65924 23.7786 5.65924Z" fill="white" fill-opacity="0.3"/>
<path d="M2.71756 5.65924C4.07634 5.65924 5.43511 4.24443 5.43511 2.82962C5.43511 1.41481 4.07634 0 2.71756 0C1.35878 0 0 1.41481 0 2.82962C0 4.24443 1.35878 5.65924 2.71756 5.65924Z" fill="white" fill-opacity="0.3"/>
</g>
<path fill-rule="evenodd" clip-rule="evenodd" d="M87.1029 0.152153C104.33 -1.24481 120.354 7.14865 133.571 18.2996C148.253 30.6872 163.475 45.6009 163.754 64.8223C164.034 84.1942 149.035 99.4419 134.937 112.713C121.4 125.457 105.678 136.46 87.1029 136.978C68.0666 137.51 50.739 128.148 36.5223 115.462C21.2718 101.854 3.74562 85.1222 6.2385 64.8223C8.65703 45.128 32.1128 37.6552 47.5981 25.271C60.2687 15.1379 70.9391 1.46286 87.1029 0.152153Z" fill="#A0B9EB"/>
<path d="M90.0243 96.6962H88.9641C88.5898 96.6962 88.3404 97.0084 88.3404 97.3206C88.3404 99.2566 86.7811 100.755 84.91 100.755C82.9765 100.755 81.4796 99.1941 81.4796 97.3206C81.4796 96.9459 81.1678 96.6962 80.8559 96.6962H79.7956C79.4214 96.6962 79.1719 97.0084 79.1719 97.3206C79.1719 100.506 81.7915 103.128 84.9724 103.128C88.1532 103.128 90.7728 100.506 90.7728 97.3206C90.648 97.0084 90.3986 96.6962 90.0243 96.6962ZM94.5774 80.959H95.6377C96.0119 80.959 96.2614 80.6467 96.2614 80.3345C96.2614 78.3985 97.8206 76.8997 99.6917 76.8997C101.625 76.8997 103.122 78.461 103.122 80.3345C103.122 80.7092 103.434 80.959 103.746 80.959H104.806C105.18 80.959 105.43 80.6467 105.43 80.3345C105.43 77.1495 102.81 74.5267 99.6294 74.5267C96.4485 74.5267 93.8289 77.1495 93.8289 80.3345C93.9537 80.6467 94.2031 80.959 94.5774 80.959ZM62.2072 80.959H63.2675C63.6418 80.959 63.8912 80.6467 63.8912 80.3345C63.8912 78.3985 65.4505 76.8997 67.3216 76.8997C69.1927 76.8997 70.752 78.461 70.752 80.3345C70.752 80.7092 71.0638 80.959 71.3757 80.959H72.436C72.8102 80.959 73.0597 80.6467 73.0597 80.3345C73.0597 77.1495 70.4401 74.5267 67.2592 74.5267C64.0784 74.5267 61.4588 77.1495 61.4588 80.3345C61.5212 80.6467 61.833 80.959 62.2072 80.959ZM128.382 65.2217C128.195 61.2874 126.823 56.6662 126.76 56.5413C121.958 36.3078 105.492 21.5697 86.6564 20.8204C76.3653 20.3208 65.9495 24.1926 57.8413 31.4367C48.7353 39.68 43.0596 51.6703 42.124 64.7222C39.8787 66.096 38.3818 68.5316 38.3818 71.3418V83.8316C38.3818 87.5786 41.0638 90.7635 44.6189 91.4504H50.9182C50.9182 91.4504 59.1511 116.055 84.5358 116.18C102.498 116.243 112.789 103.128 117.779 91.7627C117.779 91.7627 122.831 91.6378 123.58 91.5753C127.883 91.388 131.376 88.0782 131.376 83.7692V71.3418C131.376 68.8438 130.191 66.6581 128.382 65.2217ZM116.345 88.2655C111.043 93.1365 104.557 96.5088 97.5088 97.8827C96.8851 96.9459 95.7624 96.3215 94.5774 96.3215C93.0805 96.3215 91.8331 97.2582 91.2718 98.5072C91.2094 98.5072 91.147 98.5072 91.147 98.5072V99.0068C91.0846 99.319 91.0223 99.5688 91.0223 99.8811C91.0223 100.193 91.0846 100.443 91.147 100.755C91.2094 101.13 91.3965 101.442 91.5836 101.755C92.2073 102.816 93.33 103.503 94.6397 103.503C96.199 103.503 97.5088 102.504 98.0077 101.13C103.621 100.068 108.86 97.8827 113.6 94.6978C107.426 106.251 96.698 113.87 84.4734 113.87C70.1906 113.87 57.9037 103.378 52.6022 88.4529C53.413 87.3288 53.912 86.0173 54.0368 84.581C54.0368 84.581 54.0368 84.581 54.0368 84.5186C57.4047 88.0157 62.0825 90.2639 67.2592 90.2639C75.0555 90.2639 81.8539 85.2679 84.4734 78.2112C87.0929 85.2055 93.8289 90.2014 101.688 90.2014C107.363 90.2014 112.54 87.5161 115.908 83.332V83.7692C115.908 85.0182 116.22 86.2047 116.719 87.2663C116.532 87.641 116.469 87.9533 116.345 88.2655ZM61.5212 56.2915C69.0056 62.9111 82.4776 53.7311 93.9537 56.1042C99.7541 57.2907 110.419 68.1569 115.846 65.4715V70.405C115.846 70.5299 115.846 70.6548 115.783 70.7797H83.226H53.9744V68.6565C60.7104 67.2201 61.7707 61.6621 61.5212 56.2915ZM115.783 73.7148V77.774C113.476 83.3945 107.925 87.3288 101.563 87.3288C93.7666 87.3288 87.1553 81.3336 86.2821 73.7148H115.783ZM82.4776 73.7148C81.6044 81.3336 74.9931 87.3288 67.1969 87.3288C61.6459 87.3288 56.6563 84.2688 53.9744 79.7724V73.7148H82.4776ZM123.58 63.5356C122.893 63.5356 122.207 63.5981 121.584 63.7854C121.459 60.4132 120.898 57.6654 119.962 55.4172C114.972 38.7433 101.75 27.3775 86.4692 26.753C85.9703 26.753 85.5337 26.6906 85.0971 26.6906C76.6148 26.6906 68.6314 29.9379 61.9578 35.9955C54.411 43.0523 49.6085 52.9817 48.4234 63.8479C47.7374 63.6605 46.9266 63.5356 46.1781 63.5356C45.991 63.5356 45.8663 63.5356 45.6791 63.5356C46.8642 51.9201 52.1033 41.3037 60.2114 33.9347C67.6958 27.1902 76.8019 23.7555 86.5316 24.1926C103.746 24.8796 118.839 38.3686 123.33 56.9785C123.33 57.0409 124.328 59.8511 124.577 63.5981C124.266 63.5356 123.954 63.5356 123.58 63.5356Z" fill="#191717"/>
<path d="M115.783 83.3943C112.415 87.5784 107.239 90.2637 101.563 90.2637C93.7666 90.2637 86.9682 85.2677 84.3487 78.2734C81.7292 85.2677 74.9932 90.3261 67.1345 90.3261C61.9578 90.3261 57.2177 88.1404 53.9121 84.5808C53.9121 84.5808 53.9121 84.5808 53.9121 84.6433C53.7873 86.0796 53.2884 87.391 52.4775 88.5151C57.779 103.44 70.0659 113.932 84.3487 113.932C96.5733 113.932 107.301 106.313 113.476 94.76C108.798 97.9449 103.496 100.131 97.883 101.192C97.3841 102.566 96.0743 103.565 94.515 103.565C93.2053 103.565 92.0826 102.878 91.4589 101.817C91.2718 101.505 91.1471 101.192 91.0223 100.818C90.9599 100.505 90.8976 100.256 90.8976 99.9433C90.8976 99.6311 90.9599 99.3813 91.0223 99.069V98.5694C91.0847 98.5694 91.1471 98.5694 91.1471 98.5694C91.7084 97.258 92.9558 96.3837 94.4527 96.3837C95.6377 96.3837 96.7604 97.0082 97.3841 97.9449C104.432 96.5711 110.918 93.1988 116.22 88.3278C116.345 88.0155 116.407 87.7657 116.532 87.4535C115.97 86.3918 115.721 85.2053 115.721 83.9563V83.3943H115.783ZM84.91 103.128C81.7292 103.128 79.1096 100.505 79.1096 97.3204C79.1096 96.9457 79.4215 96.6959 79.7333 96.6959H80.7936C81.1678 96.6959 81.4173 97.0082 81.4173 97.3204C81.4173 99.2564 82.9766 100.755 84.8477 100.755C86.7811 100.755 88.278 99.1939 88.278 97.3204C88.278 96.9457 88.5899 96.6959 88.9017 96.6959H89.962C90.3362 96.6959 90.5857 97.0082 90.5857 97.3204C90.6481 100.568 88.0909 103.128 84.91 103.128Z" fill="#EAC9AC"/>
<path d="M53.9746 79.7719C56.6565 84.2683 61.6461 87.3283 67.1971 87.3283C74.9934 87.3283 81.6046 81.3332 82.4778 73.7144H53.9746V79.7719ZM67.3218 74.5262C70.5027 74.5262 73.1223 77.1491 73.1223 80.334C73.1223 80.7087 72.8104 80.9585 72.4986 80.9585H71.4383C71.064 80.9585 70.8146 80.6462 70.8146 80.334C70.8146 78.398 69.2553 76.8993 67.3842 76.8993C65.5131 76.8993 63.9538 78.4605 63.9538 80.334C63.9538 80.7087 63.642 80.9585 63.3301 80.9585H62.2698C61.8956 80.9585 61.6461 80.6462 61.6461 80.334C61.5214 77.1491 64.141 74.5262 67.3218 74.5262Z" fill="#EAC9AC"/>
<path d="M101.563 87.3283C107.925 87.3283 113.476 83.3315 115.783 77.7736V73.7144H86.2822C87.2178 81.3332 93.7666 87.3283 101.563 87.3283ZM99.7542 74.5262C102.935 74.5262 105.555 77.1491 105.555 80.334C105.555 80.7087 105.243 80.9585 104.931 80.9585H103.871C103.496 80.9585 103.247 80.6462 103.247 80.334C103.247 78.398 101.688 76.8993 99.8166 76.8993C97.8831 76.8993 96.3862 78.4605 96.3862 80.334C96.3862 80.7087 96.0743 80.9585 95.7625 80.9585H94.7022C94.328 80.9585 94.0785 80.6462 94.0785 80.334C93.9538 77.1491 96.5109 74.5262 99.7542 74.5262Z" fill="#EAC9AC"/>
<path d="M53.9746 68.6559V70.7792H83.2262H115.846C115.846 70.6543 115.846 70.5294 115.908 70.4045V65.471C110.482 68.1564 99.7543 57.3526 94.0163 56.1037C82.5401 53.7306 69.1306 62.9106 61.5838 56.291C61.7709 61.6616 60.7106 67.2196 53.9746 68.6559Z" fill="#EAC9AC"/>
<path d="M58.4029 66.5327C57.2802 67.4695 55.8457 68.2188 53.9746 68.656V70.7793H58.3405C58.3405 69.218 58.4029 67.7817 58.4029 66.5327Z" fill="#D8A987"/>
<path d="M59.5877 88.5773C57.4672 87.5781 55.5337 86.2042 53.9121 84.5181C53.9121 84.5181 53.9121 84.5181 53.9121 84.5805C53.7873 86.0168 53.2884 87.3283 52.4775 88.4524C55.1595 95.9463 59.5877 102.316 65.1387 106.812C62.2697 101.567 60.5857 95.0095 59.5877 88.5773Z" fill="#D8A987"/>
<path d="M59.1513 85.0177C58.7147 81.0209 58.4653 77.1491 58.4029 73.7144H53.9746V79.7719C55.2844 81.8952 57.0307 83.7062 59.1513 85.0177Z" fill="#D8A987"/>
<path d="M115.784 83.8312V83.394C114.1 85.5173 111.917 87.2034 109.484 88.39C109.235 90.201 108.861 92.012 108.486 93.8231C111.293 92.2618 113.975 90.3884 116.345 88.2026C116.47 87.8904 116.532 87.6406 116.657 87.3283C116.095 86.3292 115.784 85.1426 115.784 83.8312Z" fill="#F2F2F2"/>
<path d="M115.783 77.7111V73.6519H110.669C110.607 77.0241 110.42 80.8335 109.983 84.7678C112.54 83.0817 114.598 80.6462 115.783 77.7111Z" fill="#F2F2F2"/>
<path d="M104.12 106.375C107.862 103.253 111.043 99.2561 113.476 94.6973C111.542 96.0087 109.484 97.1328 107.363 98.132C106.553 101.005 105.492 103.815 104.12 106.375Z" fill="#F2F2F2"/>
<path d="M115.846 70.7796C115.846 70.6547 115.846 70.5298 115.908 70.4049V65.4714C114.473 66.1584 112.665 65.9086 110.606 65.1592C110.669 66.658 110.731 68.5939 110.731 70.7796H115.846Z" fill="#F2F2F2"/>
<defs>
<clipPath id="clip0">
<rect width="89" height="92.6701" fill="white"/>
</clipPath>
</defs>
</svg>
