<svg width="96" height="96" viewBox="0 0 96 96" fill="none" xmlns="http://www.w3.org/2000/svg">
<path d="M57.5405 23.7951V19.6647C57.5405 18.958 57.2611 18.2802 56.7637 17.7805C56.2663 17.2807 55.5917 17 54.8883 17H44.1117C43.4083 17 42.7337 17.2807 42.2363 17.7805C41.7389 18.2802 41.4595 18.958 41.4595 19.6647V23.7951C34.3343 25.7516 28.1579 30.2395 24.0772 36.4256C19.9964 42.6117 18.2887 50.0755 19.271 57.431C20.2534 64.7866 23.8591 71.534 29.4185 76.4204C34.978 81.3068 42.1135 84 49.5 84C56.8865 84 64.022 81.3068 69.5815 76.4204C75.1409 71.534 78.7466 64.7866 79.729 57.431C80.7113 50.0755 79.0036 42.6117 74.9228 36.4256C70.8421 30.2395 64.6657 25.7516 57.5405 23.7951Z" fill="#E6A930"/>
<path d="M49.4823 81.9213C41.5509 81.9226 33.9312 78.6941 28.2401 72.9211C22.5491 67.148 19.2346 59.2848 19 51C19 51.3788 19 51.7483 19 52.1271C19 60.5803 22.2134 68.6873 27.9332 74.6646C33.6531 80.642 41.4109 84 49.5 84C57.5891 84 65.3469 80.642 71.0668 74.6646C76.7866 68.6873 80 60.5803 80 52.1271C80 51.7483 80 51.3788 80 51C79.7653 59.2912 76.4459 67.1599 70.7472 72.9339C65.0485 78.708 57.4198 81.9322 49.4823 81.9213Z" fill="#E6A930"/>
<path d="M73 53.5C73 57.9501 71.6218 62.3002 69.0395 66.0003C66.4573 69.7004 62.7871 72.5843 58.4931 74.2873C54.199 75.9902 49.4739 76.4358 44.9154 75.5677C40.3568 74.6995 36.1695 72.5566 32.883 69.4099C29.5965 66.2632 27.3583 62.2541 26.4516 57.8895C25.5448 53.525 26.0102 49.001 27.7888 44.8896C29.5675 40.7783 32.5796 37.2643 36.4441 34.7919C40.3087 32.3196 44.8521 31 49.5 31C52.5861 31 55.6419 31.582 58.4931 32.7127C61.3442 33.8434 63.9348 35.5008 66.117 37.5901C68.2992 39.6794 70.0302 42.1598 71.2112 44.8896C72.3922 47.6194 73 50.5453 73 53.5Z" fill="#FFBD36"/>
<path d="M73 53C72.9782 47.1583 70.44 41.5627 65.9415 37.439C61.443 33.3154 55.351 31 49 31V53H73Z" fill="#FFD582"/>
<path d="M30.0716 20.4915L32 21L30.0716 21.5267C28.7412 21.8866 27.529 22.5896 26.5567 23.5651C25.5844 24.5405 24.8862 25.7541 24.5321 27.084L24.0136 29L23.4952 27.084C23.1359 25.7512 22.4328 24.5358 21.456 23.559C20.4792 22.5823 19.2629 21.8784 17.9284 21.5176L16 21L17.9284 20.4824C19.263 20.1249 20.48 19.4232 21.4571 18.4478C22.4342 17.4723 23.1371 16.2575 23.4952 14.9251L24.0136 13L24.5321 14.9251C24.8897 16.2587 25.5922 17.475 26.5693 18.452C27.5464 19.429 28.7636 20.1324 30.0989 20.4915H30.0716Z" fill="#E6A930"/>
<path d="M52.8711 53.4027C52.8711 54.0674 52.674 54.7172 52.3047 55.2699C51.9354 55.8225 51.4106 56.2533 50.7965 56.5076C50.1824 56.762 49.5066 56.8286 48.8547 56.6989C48.2028 56.5692 47.604 56.2491 47.134 55.7791C46.664 55.3091 46.3439 54.7103 46.2142 54.0584C46.0845 53.4065 46.1511 52.7307 46.4055 52.1166C46.6598 51.5025 47.0906 50.9777 47.6433 50.6084C48.1959 50.2391 48.8457 50.042 49.5104 50.042C49.952 50.0408 50.3896 50.1269 50.7979 50.2954C51.2061 50.4639 51.5771 50.7114 51.8894 51.0237C52.2017 51.336 52.4492 51.707 52.6177 52.1152C52.7862 52.5235 52.8723 52.9611 52.8711 53.4027Z" fill="#4072D6"/>
<path d="M58.3291 23.0755V19.41C58.3291 18.5187 57.9751 17.6639 57.3448 17.0336C56.7146 16.4034 55.8597 16.0493 54.9684 16.0493H49.9677C49.3224 14.8574 46.3829 10 41.1043 10C37.8601 10 36.0946 11.7924 34.3828 13.5848C32.456 15.5564 30.4754 17.5728 26.1199 17.5011C25.4676 16.7162 24.9936 15.7988 24.7308 14.8126L24.22 12.9126C24.182 12.7693 24.0977 12.6425 23.9802 12.5521C23.8627 12.4616 23.7186 12.4126 23.5703 12.4126C23.422 12.4126 23.2778 12.4616 23.1603 12.5521C23.0428 12.6425 22.9585 12.7693 22.9205 12.9126L22.4097 14.8126C22.0858 16.0128 21.4527 17.1071 20.5736 17.9862C19.6945 18.8653 18.6002 19.4984 17.4 19.8223L15.5001 20.3331C15.3567 20.3711 15.2299 20.4554 15.1395 20.5729C15.049 20.6904 15 20.8346 15 20.9829C15 21.1311 15.049 21.2753 15.1395 21.3928C15.2299 21.5103 15.3567 21.5946 15.5001 21.6326L17.4 22.1434C18.6002 22.4673 19.6945 23.1004 20.5736 23.9795C21.4527 24.8586 22.0858 25.9529 22.4097 27.1531L22.9205 29.0531C22.9585 29.1964 23.0428 29.3232 23.1603 29.4136C23.2778 29.5041 23.422 29.5531 23.5703 29.5531C23.7186 29.5531 23.8627 29.5041 23.9802 29.4136C24.0977 29.3232 24.182 29.1964 24.22 29.0531L24.7308 27.1531C25.0612 25.9546 25.6976 24.8627 26.5775 23.9844C27.4573 23.1061 28.5504 22.4717 29.7495 22.1434L31.6405 21.6326C31.7838 21.5946 31.9106 21.5103 32.0011 21.3928C32.0915 21.2753 32.1405 21.1311 32.1405 20.9829C32.1405 20.8346 32.0915 20.6904 32.0011 20.5729C31.9106 20.4554 31.7838 20.3711 31.6405 20.3331L29.7495 19.8223C28.9528 19.606 28.2005 19.2511 27.527 18.7737C31.4881 18.4332 33.5225 16.354 35.3418 14.4899C36.9997 12.8051 38.4516 11.3443 41.1402 11.3443C44.9221 11.3443 47.4135 14.4899 48.4352 16.0493H44.0438C43.1532 16.0517 42.2998 16.4065 41.67 17.0363C41.0403 17.666 40.6855 18.5194 40.6831 19.41V23.0755C33.3794 25.1999 27.0874 29.8882 22.9629 36.2792C18.8383 42.6703 17.1582 50.3349 18.2311 57.8652C19.3041 65.3956 23.058 72.286 28.8033 77.2708C34.5487 82.2556 41.8997 85 49.5061 85C57.1125 85 64.4635 82.2556 70.2089 77.2708C75.9542 72.286 79.7082 65.3956 80.7811 57.8652C81.854 50.3349 80.1739 42.6703 76.0494 36.2792C71.9248 29.8882 65.6329 25.1999 58.3291 23.0755ZM23.5748 26.3645C23.1584 25.1118 22.4556 23.9734 21.5221 23.04C20.5887 22.1065 19.4503 21.4037 18.1976 20.9873C19.4513 20.5729 20.5907 19.8707 21.5244 18.937C22.4581 18.0032 23.1603 16.8639 23.5748 15.6102C23.9892 16.8639 24.6914 18.0032 25.6251 18.937C26.5588 19.8707 27.6982 20.5729 28.9519 20.9873C27.6995 21.4043 26.5615 22.1073 25.6281 23.0407C24.6948 23.9741 23.9917 25.1121 23.5748 26.3645ZM49.5106 83.6492C42.1888 83.6449 35.1171 80.9849 29.6075 76.1627C24.098 71.3405 20.5247 64.6835 19.5505 57.4268C18.5764 50.1701 20.2676 42.8064 24.3104 36.7019C28.3532 30.5974 34.473 26.1666 41.5345 24.2316C41.6765 24.1907 41.8014 24.1048 41.8903 23.9868C41.9792 23.8688 42.0273 23.7251 42.0274 23.5773V19.41C42.0274 18.8752 42.2398 18.3624 42.618 17.9842C42.9961 17.606 43.509 17.3936 44.0438 17.3936H54.9684C55.5032 17.3936 56.0161 17.606 56.3942 17.9842C56.7724 18.3624 56.9849 18.8752 56.9849 19.41V23.5773C56.9849 23.7251 57.0331 23.8688 57.122 23.9868C57.2109 24.1048 57.3358 24.1907 57.4778 24.2316C64.5385 26.1664 70.6578 30.5965 74.7006 36.7C78.7434 42.8036 80.4353 50.1663 79.4623 57.4224C78.4894 64.6785 74.9177 71.3354 69.4098 76.1583C63.9019 80.9812 56.8316 83.6428 49.5106 83.6492Z" fill="#E6A930"/>
<path d="M62.5887 52.8337L53.063 51.7048C52.709 50.9242 52.0988 50.2909 51.3356 49.9118L50.1181 36.3399C50.099 36.244 50.0476 36.1578 49.9726 36.0958C49.8977 36.0339 49.8037 36 49.7068 36C49.6099 36 49.516 36.0339 49.441 36.0958C49.366 36.1578 49.3146 36.244 49.2955 36.3399L48.0699 49.9118C47.5365 50.1761 47.074 50.5662 46.7215 51.049C46.369 51.5318 46.1369 52.0931 46.0448 52.6855C45.9526 53.2779 46.0032 53.884 46.1922 54.4525C46.3812 55.0211 46.703 55.5353 47.1305 55.9519C47.558 56.3684 48.0786 56.6749 48.6483 56.8456C49.218 57.0162 49.82 57.0459 50.4035 56.9323C50.987 56.8186 51.5348 56.5648 52.0005 56.1924C52.4663 55.82 52.8364 55.3399 53.0795 54.7927L62.5887 53.6638C62.6978 53.6638 62.8024 53.62 62.8795 53.5422C62.9567 53.4644 63 53.3588 63 53.2487C63 53.1387 62.9567 53.0331 62.8795 52.9552C62.8024 52.8774 62.6978 52.8337 62.5887 52.8337ZM49.7068 55.7473C49.2187 55.7473 48.7416 55.6012 48.3358 55.3276C47.93 55.054 47.6137 54.665 47.4269 54.21C47.2401 53.755 47.1912 53.2543 47.2865 52.7712C47.3817 52.2881 47.6167 51.8444 47.9618 51.4962C48.307 51.1479 48.7467 50.9107 49.2254 50.8146C49.7041 50.7185 50.2003 50.7679 50.6512 50.9563C51.1021 51.1448 51.4876 51.464 51.7587 51.8735C52.0299 52.283 52.1746 52.7645 52.1746 53.257C52.1746 53.9175 51.9146 54.5509 51.4518 55.0179C50.989 55.4849 50.3613 55.7473 49.7068 55.7473Z" fill="#F1F2F2"/>
</svg>
