<svg width="96" height="96" viewBox="0 0 96 96" fill="none" xmlns="http://www.w3.org/2000/svg">
<path d="M72.545 66C72.54 67.7674 71.833 69.4608 70.5788 70.7097C69.3246 71.9585 67.6254 72.661 65.853 72.6635H47.9195L39 79.3365L47.9195 86H65.853C68.8086 85.9975 71.6424 84.8256 73.7323 82.7416C75.8223 80.6577 76.9975 77.8319 77 74.8847V68.2212L72.545 66Z" fill="#66A6D4"/>
<path d="M30.0946 72.6635C28.3314 72.661 26.6411 71.9582 25.3943 70.7091C24.1475 69.46 23.446 67.7665 23.4435 66L19 68.2212V74.8847C19.0025 77.8319 20.1722 80.6577 22.2523 82.7416C24.3324 84.8256 27.1529 85.9975 30.0946 86H48V72.6635H30.0946Z" fill="#A2BDD0"/>
<path d="M19 68H33.2185L43 55H19V68Z" fill="#BF8D28"/>
<path d="M52 55L62.1282 68H77V55H52Z" fill="#805E1B"/>
<path d="M19 38.929L48 50V10C40.3126 10.0074 32.9421 13.0574 27.5055 18.4808C22.0688 23.9041 19.0099 31.258 19 38.929Z" fill="#FFBD36"/>
<path d="M77 38.929C76.9925 31.2588 73.9348 23.905 68.4978 18.4813C63.0609 13.0577 55.689 10.0074 48 10V50L77 38.929Z" fill="#E6A930"/>
<path d="M77 39.3174H68.0444C66.4608 39.3228 64.927 38.7598 63.7178 37.7293C62.5087 36.6987 61.7031 35.2679 61.4455 33.6933L57.5522 10H47.9085L39 52H77V39.3174Z" fill="#BF8D28"/>
<path d="M38.3803 10L34.5005 33.6933C34.2402 35.2663 33.4365 36.6949 32.2323 37.7247C31.0281 38.7546 29.5016 39.319 27.9245 39.3174H19V52H48V10H38.3803Z" fill="#E6A930"/>
<path d="M47.9258 46L39 52.5046L47.9258 59H74.8451C77.802 58.9951 80.6364 57.8521 82.7273 55.8212C84.8181 53.7903 85.995 51.0372 86 48.1651V46H47.9258Z" fill="#E6A930"/>
<path d="M10 46V48.1651C10.005 51.0372 11.1793 53.7903 13.2655 55.8212C15.3518 57.8521 18.18 58.9951 21.1305 59H48V46H10Z" fill="#FFBD36"/>
</svg>
