<svg width="96" height="96" viewBox="0 0 96 96" fill="none" xmlns="http://www.w3.org/2000/svg">
<path d="M74 86H22V30.1394L48.0226 15L74 30.1394V86Z" fill="#F1F2F2"/>
<path d="M74 30.1394L49 15V86H74V30.1394Z" fill="#A2BDD0"/>
<path d="M75.2595 35L47.5046 18.801L19.7497 35L16 28.3595L47.5046 10L79 28.3595L75.2595 35Z" fill="#FFBD36"/>
<path d="M49 10V18.8191L75.4371 35L79 28.3389L49 10Z" fill="#E6A930"/>
<path d="M58.1237 37.944C55.7278 37.9415 53.417 38.856 51.6418 40.5092C49.8667 42.1624 48.7545 44.4357 48.5222 46.8857V44.9109C48.5258 43.6114 48.2798 42.324 47.7986 41.1223C47.3173 39.9206 46.6101 38.8283 45.7174 37.9077C44.8248 36.9872 43.7643 36.2565 42.5965 35.7576C41.4287 35.2586 40.1766 35.0012 38.9119 35H34V40.0469C34.0024 42.6649 35.0156 45.1751 36.8174 47.0264C38.6192 48.8776 41.0622 49.9187 43.6103 49.9211H45.2654V67H51.7702V52.856H53.4253C55.9664 52.8463 58.4003 51.803 60.1947 49.9542C61.989 48.1055 62.9977 45.6018 63 42.9909V37.944H58.1237Z" fill="#00D994"/>
<path d="M49 67H52.1474V52.8833H53.7469C56.2027 52.8736 58.5548 51.8323 60.2889 49.9871C62.023 48.1419 62.9977 45.643 63 43.0371V38H58.2875C55.9721 37.9975 53.7389 38.9103 52.0234 40.5603C50.3079 42.2103 49.2331 44.4792 49.0086 46.9245L49 67Z" fill="#1F664F"/>
<path d="M55 62H40V86H55V62Z" fill="#FFBD36"/>
<path d="M55 62H49V86H55V62Z" fill="#E6A930"/>
</svg>
