<svg width="96" height="96" viewBox="0 0 96 96" fill="none" xmlns="http://www.w3.org/2000/svg">
<path d="M73 28H22V51H73V28Z" fill="#81BDFD"/>
<path d="M73 28H47V51H73V28Z" fill="#0981D3"/>
<path d="M20 26V53H75V26H20ZM70.5913 48.6356H24.4087V30.3644H70.5913V48.6356Z" fill="#2D5096"/>
<path d="M75 26V53H47V48.6356H70.5112V30.3644H47V26H75Z" fill="#16274A"/>
<path d="M65 38H50V53H65V38Z" fill="#16274A"/>
<path d="M55 40.8176V53H29V40.8176C29 39.0095 29.735 37.2754 31.0434 35.9968C32.3517 34.7183 34.1262 34 35.9765 34H48.0235C49.873 34.0025 51.646 34.7215 52.9538 35.9996C54.2616 37.2776 54.9975 39.0103 55 40.8176Z" fill="#FFBD36"/>
<path d="M55 53H47V34H47.4827C49.4756 34.0025 51.386 34.7215 52.7952 35.9996C54.2044 37.2776 54.9973 39.0103 55 40.8176V53Z" fill="#BF8D28"/>
<path d="M84.9999 55.5077V77H10.0001V55.5077C9.99286 53.7918 10.6799 52.1432 11.9104 50.9232C13.141 49.7033 14.8147 49.0117 16.5645 49H78.4085C79.2775 49.0011 80.1378 49.1706 80.9399 49.4986C81.7421 49.8266 82.4702 50.3067 83.0826 50.9113C83.6951 51.516 84.1797 52.2333 84.5087 53.022C84.8377 53.8108 85.0046 54.6555 84.9999 55.5077Z" fill="#F1F2F2"/>
<path d="M84.9999 55.5077V77H47V49H78.3198C79.2006 49.0011 80.0724 49.1706 80.8853 49.4986C81.6982 49.8266 82.4362 50.3067 83.0568 50.9113C83.6775 51.516 84.1686 52.2333 84.5021 53.022C84.8355 53.8108 85.0047 54.6555 84.9999 55.5077Z" fill="#A2BDD0"/>
<path d="M24.7 31L31 10H20.5L10 31H24.7Z" fill="#00D994"/>
<path d="M25 31H39.8716L42 10H31.3851L25 31Z" fill="#F1F2F2"/>
<path d="M55 31H39L41.2816 10H52.6896L55 31Z" fill="#00D994"/>
<path d="M55.1261 31H70L63.6216 10H53L55.1261 31Z" fill="#B8FBFF"/>
<path d="M70.3 31H85L74.5 10H64L70.3 31Z" fill="#1F664F"/>
<path d="M38 75.0086C37.9983 76.5905 37.5276 78.1364 36.6476 79.4508C35.7675 80.7653 34.5174 81.7893 33.0555 82.3935C31.5935 82.9977 29.9853 83.1549 28.434 82.8452C26.8827 82.5356 25.4581 81.773 24.3401 80.6538C23.2221 79.5346 22.4611 78.1092 22.1531 76.5575C21.8451 75.0059 22.004 73.3978 22.6098 71.9365C23.2155 70.4752 24.2409 69.2263 25.5563 68.3476C26.8717 67.469 28.4181 67 30 67C31.0513 67 32.0923 67.2072 33.0635 67.6098C34.0346 68.0124 34.9169 68.6024 35.6599 69.3462C36.4029 70.09 36.992 70.9729 37.3935 71.9445C37.795 72.9161 38.0011 73.9573 38 75.0086Z" fill="#FFBD36"/>
<path d="M30.509 86C28.4315 86.0018 26.4002 85.3872 24.6721 84.2342C22.944 83.0811 21.5968 81.4413 20.801 79.5223C20.0052 77.6033 19.7965 75.4914 20.2013 73.4537C20.6062 71.4161 21.6064 69.5444 23.0754 68.0754C24.5444 66.6064 26.4161 65.6062 28.4537 65.2013C30.4914 64.7965 32.6033 65.0052 34.5223 65.801C36.4413 66.5968 38.0811 67.944 39.2342 69.6721C40.3872 71.4002 41.0018 73.4315 41 75.509C40.9953 78.2899 39.8884 80.9556 37.922 82.922C35.9556 84.8884 33.2899 85.9953 30.509 86ZM30.509 69.381C29.2966 69.3792 28.1109 69.7371 27.102 70.4094C26.0931 71.0816 25.3062 72.0381 24.8411 73.1577C24.3759 74.2772 24.2532 75.5097 24.4887 76.699C24.7241 77.8883 25.307 78.981 26.1637 79.8389C27.0203 80.6968 28.1122 81.2814 29.3012 81.5185C30.4901 81.7557 31.7227 81.6349 32.843 81.1713C33.9633 80.7078 34.9209 79.9224 35.5946 78.9144C36.2684 77.9065 36.628 76.7213 36.628 75.509C36.628 73.8853 35.9836 72.3279 34.8363 71.179C33.689 70.03 32.1326 69.3833 30.509 69.381Z" fill="#1A2E57"/>
<path d="M73 77C73 78.1867 72.6481 79.3467 71.9888 80.3334C71.3295 81.3201 70.3925 82.0891 69.2961 82.5433C68.1997 82.9974 66.9933 83.1162 65.8295 82.8847C64.6656 82.6532 63.5965 82.0817 62.7574 81.2426C61.9182 80.4035 61.3468 79.3344 61.1153 78.1705C60.8838 77.0067 61.0026 75.8003 61.4567 74.7039C61.9109 73.6075 62.6799 72.6705 63.6666 72.0112C64.6533 71.3519 65.8133 71 67 71C68.5913 71 70.1174 71.6321 71.2426 72.7574C72.3679 73.8826 73 75.4087 73 77Z" fill="#E6A930"/>
<path d="M66.5 86C64.8189 86 63.1755 85.5015 61.7777 84.5675C60.3798 83.6335 59.2904 82.306 58.647 80.7528C58.0037 79.1996 57.8354 77.4906 58.1633 75.8417C58.4913 74.1929 59.3008 72.6783 60.4896 71.4896C61.6783 70.3008 63.1929 69.4913 64.8417 69.1633C66.4906 68.8354 68.1996 69.0037 69.7528 69.647C71.306 70.2904 72.6335 71.3798 73.5675 72.7777C74.5015 74.1755 75 75.8189 75 77.5C74.9975 79.7536 74.1012 81.9142 72.5077 83.5077C70.9142 85.1012 68.7536 85.9975 66.5 86ZM66.5 73.5532C65.7194 73.5532 64.9563 73.7847 64.3073 74.2184C63.6583 74.6521 63.1524 75.2685 62.8537 75.9896C62.5549 76.7108 62.4768 77.5044 62.6291 78.27C62.7814 79.0356 63.1573 79.7388 63.7092 80.2908C64.2612 80.8427 64.9644 81.2186 65.73 81.3709C66.4956 81.5232 67.2892 81.4451 68.0104 81.1463C68.7315 80.8476 69.3479 80.3417 69.7816 79.6927C70.2153 79.0437 70.4468 78.2806 70.4468 77.5C70.4443 76.454 70.0277 75.4516 69.2881 74.7119C68.5484 73.9723 67.546 73.5557 66.5 73.5532Z" fill="#16274A"/>
<path d="M85 58H10V62H85V58Z" fill="#FFBD36"/>
<path d="M55.9463 31H47V10H53.4439L56 31H55.9463Z" fill="#1F664F"/>
<path d="M85 58H47V62H85V58Z" fill="#BF8D28"/>
</svg>
