<svg width="96" height="96" viewBox="0 0 96 96" fill="none" xmlns="http://www.w3.org/2000/svg">
<path d="M72.5077 21V43.0034C72.5052 44.4616 71.9033 45.8594 70.834 46.8905C69.7647 47.9216 68.3152 48.5019 66.803 48.5043H39.0864V36.0007L10 55.0003L39.0864 74V61.5145H66.803C71.892 61.5073 76.7706 59.5548 80.3691 56.0848C83.9676 52.6149 85.9926 47.9107 86 43.0034V21H72.5077Z" fill="#FFBD36"/>
<path d="M71.9821 21V42.724C71.9796 44.1636 71.3543 45.5437 70.2433 46.5617C69.1324 47.5797 67.6264 48.1526 66.0552 48.155H50V61H66.0552C71.3425 60.9929 76.4111 59.0651 80.1498 55.6393C83.8885 52.2134 85.9923 47.5689 86 42.724V21H71.9821Z" fill="#E6A930"/>
</svg>
