<svg width="96" height="96" viewBox="0 0 96 96" fill="none" xmlns="http://www.w3.org/2000/svg">
<path d="M33 57C40.732 57 47 46.4787 47 33.5C47 20.5213 40.732 10 33 10C25.268 10 19 20.5213 19 33.5C19 46.4787 25.268 57 33 57Z" fill="#00D994"/>
<path d="M33.0552 10H33V57H33.0552C40.7584 57 47 46.478 47 33.5C47 20.522 40.7584 10 33.0552 10Z" fill="#1F664F"/>
<path d="M43 45.0703L38.348 40.2773L36.2016 42.4845V33H29.6188V35.7244L27.661 33.7111L23 38.4949L29.6188 45.3012V72H36.2016V52.0613L43 45.0703Z" fill="#BF8D28"/>
<path d="M38.4159 40.2773L36.3009 42.4845V33H33V72H36.3009V52.0613L43 45.0703L38.4159 40.2773Z" fill="#805E1B"/>
<path d="M64 57C71.732 57 78 46.4787 78 33.5C78 20.5213 71.732 10 64 10C56.268 10 50 20.5213 50 33.5C50 46.4787 56.268 57 64 57Z" fill="#00D994"/>
<path d="M78 33.5C78 20.5313 71.7347 10.0093 64 10V57C71.7347 56.9907 78 46.4687 78 33.5Z" fill="#1F664F"/>
<path d="M74 45.0703L69.348 40.2773L67.2016 42.4845V33H60.6188V35.7244L58.661 33.7111L54 38.4949L60.6188 45.3012V72H67.2016V52.0613L74 45.0703Z" fill="#BF8D28"/>
<path d="M69.3832 40.2773L67.2531 42.4845V33H64V72H67.2531V52.0613L74 45.0703L69.3832 40.2773Z" fill="#805E1B"/>
<path d="M10 61C13.6871 68.2408 19.2228 74.304 26.0085 78.5341C32.7942 82.7641 40.5717 85 48.5 85C56.4283 85 64.2058 82.7641 70.9915 78.5341C77.7772 74.304 83.3129 68.2408 87 61H10Z" fill="#FFC247"/>
<path d="M48 61V85H48.0749C56.0912 85.004 63.9559 82.7699 70.8171 78.5394C77.6783 74.309 83.2747 68.2436 87 61H48Z" fill="#E6A930"/>
</svg>
