<svg width="96" height="96" viewBox="0 0 96 96" fill="none" xmlns="http://www.w3.org/2000/svg">
<path d="M76 39H21V86H76V39Z" fill="#FFBD36"/>
<path d="M76 39H48V86H76V39Z" fill="#E6A930"/>
<path d="M80 23H16V39H80V23Z" fill="#E6A930"/>
<path d="M80 23H48V39H80V23Z" fill="#BF8D28"/>
<path d="M76 51H21V63H76V51Z" fill="#5F9BC6"/>
<path d="M76 51H48V63H76V51Z" fill="#5388AD"/>
<path d="M53 23H43V86H53V23Z" fill="#66A6D4"/>
<path d="M53 23H48V86H53V23Z" fill="#416A87"/>
<path d="M69 10L48 18.0341V23H69V10Z" fill="#A2BDD0"/>
<path d="M28 10L48 18.0341V23H28V10Z" fill="#F1F2F2"/>
</svg>
