<svg width="153" height="134" viewBox="0 0 153 134" fill="none" xmlns="http://www.w3.org/2000/svg">
<path fill-rule="evenodd" clip-rule="evenodd" d="M69.3646 0.380569C88.611 -0.566117 109.715 -0.774467 123.62 12.6253C137.696 26.1899 142.708 47.9639 138.625 67.1235C135.072 83.794 116.897 90.7729 104.487 102.403C92.8662 113.295 84.9101 128.709 69.3646 132.034C50.6776 136.032 29.196 134.597 15.236 121.494C1.01276 108.144 -0.722683 86.6545 0.206717 67.1235C1.08503 48.666 6.90887 30.516 20.1745 17.7136C33.2004 5.14252 51.3224 1.26802 69.3646 0.380569Z" fill="#8CAAE6"/>
<path d="M68.781 69.4969C68.781 68.6997 67.8827 68.1575 66.6635 68.03C65.4444 67.9024 58.386 71.1551 56.0118 75.9704C53.6377 80.7538 53.4131 86.5895 54.2152 88.2159C55.0173 89.8422 62.236 78.7448 63.1985 77.4054C64.1931 76.0661 68.781 70.3898 68.781 69.4969Z" fill="#ABB3C6"/>
<path d="M117.773 72.7812C115.238 68.6994 108.084 62.2259 107.281 62.7999C106.319 63.5015 103.816 65.925 102.309 66.5628C102.309 66.5628 107.987 71.5375 111.26 75.5556C108.501 76.0339 100.191 80.1157 100.448 81.8059C100.736 83.6554 112.928 90.7667 113.923 90.7029C114.917 90.6392 118.639 87.3227 118.735 84.3889C118.735 84.0381 121.879 82.4118 122.232 81.8059C122.649 81.1681 120.307 76.8949 117.773 72.7812Z" fill="#F2C18F"/>
<path opacity="0.5" d="M108.404 81.8377C111.356 79.5098 111.965 75.5236 111.805 75.5236C109.88 75.396 100.127 79.9881 100.415 81.8377C100.704 83.6872 112.896 90.7985 113.89 90.7347C114.34 90.7029 115.366 90.0013 116.361 88.949C112.575 87.9923 106.255 83.5597 108.404 81.8377Z" fill="#F2C18F"/>
<path opacity="0.5" d="M118.735 84.421C118.863 84.0384 121.847 82.4439 122.232 81.8699C122.649 81.2002 120.339 76.8952 117.773 72.8134C116.457 70.7087 113.955 67.9981 111.709 65.9253C108.789 65.0005 106.832 64.5222 107.827 65.2875C110.65 67.3922 117.323 77.7243 117.323 77.7243L115.078 76.7995C117.708 80.403 118.51 83.2092 118.735 84.421Z" fill="#F2C18F"/>
<path d="M117.676 93.7646C117.034 91.9469 107.345 85.027 106.318 85.0908C103.206 85.314 98.6505 92.234 99.7734 93.9879C99.9339 94.243 100.223 94.53 100.608 94.817C100.255 94.6894 99.998 94.6256 99.9018 94.5938C98.4259 94.4662 93.5813 99.7279 95.3459 101.737C95.4101 101.801 95.4743 101.864 95.5705 101.928C95.3459 101.864 95.1534 101.864 95.0251 101.864C93.1322 101.864 89.988 105.245 90.6938 106.361C90.7901 106.488 90.8863 106.616 91.0468 106.744C90.5334 106.68 90.1484 106.712 90.0201 106.807C89.3463 107.254 87.1005 110.124 87.8384 110.985C88.5763 111.846 92.4263 112.133 93.4209 112.133C94.4155 112.133 97.4634 110.443 96.918 109.135C96.8859 109.04 96.7897 108.912 96.6934 108.816C97.6239 109.008 98.458 109.135 98.9393 109.135C100.672 109.167 103.206 106.361 102.533 104.735C102.436 104.543 102.051 104.256 101.474 103.969C103.303 104.416 104.907 104.735 105.356 104.735C107.441 104.735 110.136 101.577 109.302 99.696C109.11 99.2496 108.34 98.6756 107.345 98.0378C110.008 98.9945 112.575 99.6641 113.569 99.6641C115.783 99.6641 118.318 95.5504 117.676 93.7646Z" fill="#E5AB83"/>
<path opacity="0.5" d="M94.9609 101.035C94.993 101.226 99.8055 104.352 102.468 106.137C102.597 105.819 102.629 105.532 102.629 105.245C102.629 105.053 102.597 104.894 102.533 104.734C102.436 104.543 102.051 104.256 101.474 103.969C103.303 104.415 104.907 104.734 105.356 104.734C105.581 104.734 105.837 104.702 106.062 104.607C103.431 104.097 98.5543 102.948 94.9609 101.035Z" fill="#E5AB83"/>
<path opacity="0.5" d="M97.9765 108.912C95.3778 108.369 92.7148 107.349 90.854 106.552C90.8861 106.584 94.2228 108.593 96.7253 110.187C96.9819 109.836 97.0782 109.454 96.9499 109.103C96.9178 109.007 96.8215 108.88 96.7253 108.784C97.6557 108.975 98.4899 109.103 98.9711 109.103C99.2278 109.103 99.4845 109.039 99.7732 108.943C99.0674 109.039 98.4899 109.039 97.9765 108.912Z" fill="#E5AB83"/>
<path opacity="0.5" d="M110.169 98.6115C105.902 97.6867 100.223 94.5297 100.576 94.8167C100.223 94.6891 99.9662 94.6253 99.87 94.5934C99.6454 94.5615 107.506 98.8666 109.399 100.844C109.463 100.429 109.431 100.046 109.27 99.6957C109.11 99.313 108.532 98.8347 107.73 98.3245C107.666 98.2926 107.634 98.2607 107.57 98.2288C107.474 98.165 107.377 98.1012 107.281 98.0694C109.944 99.026 112.511 99.6957 113.505 99.6957C113.987 99.6957 114.5 99.5044 114.981 99.1855C113.537 99.1536 111.837 98.9623 110.169 98.6115Z" fill="#E5AB83"/>
<path d="M70.674 68.0298C70.289 67.966 67.3694 66.0526 66.1503 65.9251C64.9311 65.7975 58.3861 71.1549 56.0119 75.9702C53.6377 80.7536 51.5202 87.1633 52.3223 88.7896C52.4827 89.0767 54.1511 90.6073 54.4077 91.1176C60.3432 102.789 83.9245 111.016 87.8387 111.016C90.1166 111.016 106.319 86.7806 106.319 85.0905C106.319 84.0382 81.2936 69.8793 70.674 68.0298Z" fill="#E5AB83"/>
<path opacity="0.5" d="M94.7361 79.5735C95.6024 80.1157 96.6611 79.9881 97.6878 79.6054C93.5169 77.3094 88.3836 74.6945 83.4428 72.4941L69.6148 78.5212C68.3635 78.7444 69.9036 80.7534 71.8286 81.8696C73.7536 82.9857 80.6194 83.8786 83.8919 80.7216C87.1644 77.5326 92.2657 78.0429 94.7361 79.5735Z" fill="#E5AB83"/>
<path opacity="0.5" d="M76.2558 95.7095C72.8229 94.7847 67.6254 99.887 65.6362 101.992C66.7591 102.693 67.9462 103.395 69.1012 104.033C73.24 101.131 79.1754 96.5068 76.2558 95.7095Z" fill="#E5AB83"/>
<path opacity="0.5" d="M66.1503 65.9251C64.9311 65.7975 58.3861 71.1549 56.0119 75.9702C53.6377 80.7536 51.5202 87.1633 52.3223 88.7896C52.4827 89.0766 54.1511 90.6073 54.4077 91.1176C54.5682 91.4046 54.6965 91.6916 54.889 91.9786C57.2953 84.1019 64.2574 70.1663 66.3749 65.9889C66.2786 65.957 66.2144 65.957 66.1503 65.9251Z" fill="#E5AB83"/>
<path d="M104.554 67.3282C103.046 66.4353 96.7902 64.3625 95.7314 64.3944C94.6727 64.4263 85.6893 65.8613 83.3793 65.8613C81.1014 65.8613 72.2143 75.6832 69.808 76.7993C67.4018 77.9154 70.931 81.7102 76.5776 81.7102C82.2243 81.7102 84.2777 76.7355 86.2347 75.6194C88.1597 74.5033 89.8281 74.5033 90.5339 74.9816C91.2398 75.46 95.3464 83.0496 102.405 81.7102C107.217 80.7855 112.094 76.2891 111.998 74.9816C111.837 73.6742 107.281 68.9546 104.554 67.3282Z" fill="#F2C18F"/>
<path opacity="0.5" d="M92.9397 75.3642C92.8434 75.1091 90.6939 72.7174 86.7476 72.9407C82.7692 73.1958 80.4272 78.0748 77.4113 78.9996C74.3955 79.9244 70.9625 77.724 71.1551 77.1181C71.2513 76.7674 74.0105 73.6741 76.128 71.3462C73.4971 73.8017 70.9305 76.2252 69.8075 76.7674C67.4013 77.8835 70.9305 81.6783 76.5771 81.6783C82.2238 81.6783 84.2772 76.7036 86.2343 75.5875C88.1593 74.4713 89.8276 74.4713 90.5334 74.9497C91.2393 75.428 95.3459 83.0177 102.404 81.6783C103.11 81.5507 103.816 81.3275 104.49 81.0724C96.918 83.3684 93.0359 75.6193 92.9397 75.3642Z" fill="#F2C18F"/>
<path opacity="0.5" d="M97.6235 64.7773C100.158 66.0529 106.479 69.3056 110.008 72.1119C108.404 70.3261 106.158 68.2852 104.554 67.3285C103.495 66.6588 99.9335 65.4151 97.6235 64.7773Z" fill="#F2C18F"/>
<path d="M55.0175 100.652C55.1779 99.0898 59.2525 96.2835 60.985 95.7733C62.7175 95.2631 66.4392 97.1764 65.4767 100.429C64.5462 103.682 62.3004 106.297 60.9529 106.297C59.6054 106.297 54.6966 103.714 55.0175 100.652Z" fill="#F2C18F"/>
<path opacity="0.5" d="M65.1239 97.6548C64.4822 99.6 62.5893 104.256 59.413 103.459C57.3597 102.948 55.9159 101.896 55.0176 101.003C55.0817 103.905 59.6697 106.297 60.953 106.297C62.3005 106.297 64.5464 103.682 65.4768 100.429C65.7976 99.3449 65.6051 98.3882 65.1239 97.6548Z" fill="#E58442"/>
<path d="M65.6376 104.543C65.4451 103.012 72.6318 96.0925 75.5834 94.9126C78.503 93.7327 82.6418 96.0925 80.3318 99.8555C78.3747 103.044 74.5568 106.999 72.6638 108.434C70.8672 109.709 66.0226 107.668 65.6376 104.543Z" fill="#F2C18F"/>
<path opacity="0.5" d="M80.3311 99.8553C81.3257 98.2609 81.1332 96.8896 80.3311 95.9648C79.0156 98.6435 73.8823 105.276 70.8344 106.488C68.5565 107.413 66.7598 105.245 65.8294 103.778C65.6689 104.097 65.5727 104.352 65.6048 104.511C65.9898 107.636 70.8344 109.709 72.599 108.402C74.5561 106.999 78.374 103.044 80.3311 99.8553Z" fill="#E58442"/>
<path d="M74.4922 107.158C74.2355 105.914 79.6897 100.971 81.1655 100.238C84.5343 98.5798 87.5501 101.29 85.0476 105.085C83.2509 107.828 80.1388 110.474 79.3688 110.761C77.6043 111.431 74.7809 108.657 74.4922 107.158Z" fill="#F2C18F"/>
<path opacity="0.5" d="M79.3692 110.762C79.4654 110.73 79.5617 110.666 79.7221 110.571C78.5671 109.869 76.8667 108.625 77.9254 105.596C78.5992 103.619 80.7167 101.323 82.2246 99.856C81.8717 99.9516 81.5188 100.047 81.1659 100.239C80.5242 100.558 79.1125 101.674 77.7329 102.949C77.6367 103.045 77.5404 103.141 77.4442 103.236C75.8079 104.799 74.3321 106.489 74.4604 107.159C74.4604 107.222 74.4925 107.318 74.5246 107.414C74.5246 107.446 74.5567 107.477 74.5567 107.509C74.5888 107.605 74.6208 107.669 74.685 107.764C74.7171 107.828 74.7492 107.924 74.8133 107.988C74.9417 108.211 75.1021 108.434 75.2625 108.657C75.4229 108.881 75.6154 109.104 75.84 109.295C76.0004 109.455 76.1929 109.614 76.3534 109.774C76.4817 109.869 76.61 109.965 76.7384 110.061C77.4442 110.571 78.1821 110.89 78.8559 110.858C79.0484 110.858 79.2088 110.826 79.3692 110.762Z" fill="#E58442"/>
<path d="M81.0373 110.442C81.1977 109.453 84.1173 106.105 85.2402 105.244C87.5182 103.458 89.8282 104.861 89.3469 107.668C88.8657 110.474 86.4915 113.121 85.6573 113.503C83.7323 114.364 80.7165 112.323 81.0373 110.442Z" fill="#F2C18F"/>
<path opacity="0.5" d="M82.545 110.985C82.9942 108.21 85.9459 105.564 87.3896 104.416C86.748 104.384 85.978 104.607 85.24 105.213C85.1759 105.277 85.0796 105.34 85.0155 105.404C84.855 105.564 84.6625 105.723 84.47 105.946C84.1492 106.265 83.8284 106.616 83.4754 106.999C83.1867 107.317 82.93 107.636 82.6413 107.955C82.5129 108.115 82.4167 108.242 82.2884 108.402C82.1921 108.529 82.1279 108.625 82.0317 108.752C81.8392 109.008 81.6788 109.231 81.5504 109.454C81.2938 109.869 81.1013 110.219 81.0692 110.443C81.0692 110.506 81.0692 110.57 81.0371 110.634C81.0371 110.762 81.0371 110.857 81.0692 110.985C81.0692 111.049 81.1013 111.112 81.1013 111.176C81.1334 111.304 81.1654 111.399 81.2296 111.527C81.2938 111.654 81.3259 111.75 81.39 111.878C81.6146 112.26 81.9675 112.611 82.3846 112.93C82.4488 112.962 82.5129 113.026 82.545 113.058C83.0904 113.408 83.7 113.663 84.3096 113.727C84.3738 113.727 84.438 113.727 84.5021 113.759C84.6946 113.759 84.9192 113.759 85.1117 113.727C85.208 113.695 85.3363 113.695 85.4325 113.632C84.085 113.185 82.2884 112.547 82.545 110.985Z" fill="#E58442"/>
<path d="M68.7811 62.6725C68.7811 62.6725 58.2898 77.2459 51.1031 92.3933L21.2655 82.3482C21.2655 82.3482 20.5597 59.8982 39.8097 45.6118L68.7811 62.6725Z" fill="#3A3A3A"/>
<path d="M51.1035 92.3613C58.2901 77.2458 68.7814 62.6406 68.7814 62.6406L59.5093 57.1875C56.4935 59.8981 46.0984 70.3896 41.3501 89.0767L51.1035 92.3613Z" fill="white"/>
<path opacity="0.5" d="M55.6273 83.6236L23.8968 67.5195C21.0735 75.7788 21.266 82.348 21.266 82.348L51.1035 92.3931C52.5152 89.3955 54.0552 86.4617 55.6273 83.6236Z" fill="#92A4AD"/>
<path d="M104.201 61.7157C104.201 61.7157 118.382 74.5989 124.478 87.7692L152.968 73.3871C152.968 73.3871 150.883 49.8529 129.29 40.2861L104.201 61.7157Z" fill="#444444"/>
<path d="M133.429 83.2731C126.724 68.1895 115.142 58.5909 111.292 55.689L104.201 61.7479C104.201 61.7479 118.382 74.6312 124.478 87.8014L133.429 83.2731Z" fill="white"/>
<path opacity="0.5" d="M124.51 87.7695L153 73.3875C153 73.3875 152.487 67.4879 149.246 60.4404L119.184 78.7448C121.205 81.6149 123.066 84.7081 124.51 87.7695Z" fill="#92A4AD"/>
</svg>
