<svg width="96" height="96" viewBox="0 0 96 96" fill="none" xmlns="http://www.w3.org/2000/svg">
<path d="M69 76H27C25.0677 76 23.418 75.3164 22.0508 73.9492C20.6836 72.582 20 70.9323 20 69V27C20 25.0677 20.6836 23.418 22.0508 22.0508C23.418 20.6836 25.0677 20 27 20H69C70.9323 20 72.582 20.6836 73.9492 22.0508C75.3164 23.418 76 25.0677 76 27V69C76 70.9323 75.3164 72.582 73.9492 73.9492C72.582 75.3164 70.9323 76 69 76ZM37.5 60.25C37.5 59.776 37.3268 59.3659 36.9805 59.0195C36.6341 58.6732 36.224 58.5 35.75 58.5H32.25C31.776 58.5 31.3659 58.6732 31.0195 59.0195C30.6732 59.3659 30.5 59.776 30.5 60.25V67.25C30.5 67.724 30.6732 68.1341 31.0195 68.4805C31.3659 68.8268 31.776 69 32.25 69H35.75C36.224 69 36.6341 68.8268 36.9805 68.4805C37.3268 68.1341 37.5 67.724 37.5 67.25V60.25ZM51.5 46.25C51.5 45.776 51.3268 45.3659 50.9805 45.0195C50.6341 44.6732 50.224 44.5 49.75 44.5H46.25C45.776 44.5 45.3659 44.6732 45.0195 45.0195C44.6732 45.3659 44.5 45.776 44.5 46.25V67.25C44.5 67.724 44.6732 68.1341 45.0195 68.4805C45.3659 68.8268 45.776 69 46.25 69H49.75C50.224 69 50.6341 68.8268 50.9805 68.4805C51.3268 68.1341 51.5 67.724 51.5 67.25V46.25ZM65.5 28.75C65.5 28.276 65.3268 27.8659 64.9805 27.5195C64.6341 27.1732 64.224 27 63.75 27H60.25C59.776 27 59.3659 27.1732 59.0195 27.5195C58.6732 27.8659 58.5 28.276 58.5 28.75V67.25C58.5 67.724 58.6732 68.1341 59.0195 68.4805C59.3659 68.8268 59.776 69 60.25 69H63.75C64.224 69 64.6341 68.8268 64.9805 68.4805C65.3268 68.1341 65.5 67.724 65.5 67.25V28.75Z" fill="url(#paint0_linear)"/>
<defs>
<linearGradient id="paint0_linear" x1="19.6498" y1="19.6498" x2="76.3498" y2="76.3498" gradientUnits="userSpaceOnUse">
<stop stop-color="#E5E5E5"/>
<stop offset="1" stop-color="#EDEDED"/>
</linearGradient>
</defs>
</svg>
